# xmcd
#
# Track frame offsets:
# 150
# 72850
# 113018
# 149412
# 224067
# 278978
#
# Disc length: 4505 seconds
#
# Revision: 0
# Processed by: cddbd v1.5.2PL0 Copyright (c) Steve Scherf et al.
# Submitted via: Audion 3.0.2 (http://www.panic.com/audion/)
#
DISCID=62119706
DTITLE=vrioas - mix grupero
DYEAR=1900
DGENRE=
TTITLE0=mix 1
TTITLE1=mix 2
TTITLE2=mix 3
TTITLE3=mix 4
TTITLE4=mix 5
TTITLE5=mix 6
EXTD=
EXTT0=
EXTT1=
EXTT2=
EXTT3=
EXTT4=
EXTT5=
PLAYORDER=
